<svg width="240" height="240" xmlns="http://www.w3.org/2000/svg" xmlns:xlink="http://www.w3.org/1999/xlink" overflow="hidden"><g><rect x="0" y="0" width="240" height="240" fill="#FFFFFF" fill-opacity="0"/><path d="M21 41.7523C21 30.2911 30.2911 21 41.7523 21L198.248 21C209.709 21 219 30.2911 219 41.7523L219 198.248C219 209.709 209.709 219 198.248 219L41.7523 219C30.2911 219 21 209.709 21 198.248Z" stroke="#A6CAEC" stroke-width="19.6667" stroke-miterlimit="8" fill="#4E95D9" fill-rule="evenodd"/><path d="M68.0001 51.9999 117 62.8387 117 177.161 68.0001 188Z" fill="#FFFFFF" fill-rule="evenodd"/><path d="M0 49 11.2347 0 124.765 0 136 49Z" fill="#FFFFFF" fill-rule="evenodd" transform="matrix(1.83697e-16 1 1 -1.83697e-16 123 51.9999)"/><path d="M129 69 129 83.6334 137.564 83.6334C137.422 88.144 133.629 91.728 129 91.7258L129 98.0001C137.194 98.001 143.873 91.5913 144 83.6038L144 83.6038 144 69Z" fill="#4E95D9" fill-rule="evenodd"/><path d="M151 69 151 83.6334 159.564 83.6334C159.416 88.1417 155.627 91.7227 151 91.7258L151 98.0001C159.194 98.001 165.873 91.5913 166 83.6038L166 83.6038 166 69Z" fill="#4E95D9" fill-rule="evenodd"/><path d="M112 174 112 158.877 103.436 158.877C103.578 154.216 107.371 150.512 112 150.515L112 144C103.806 143.999 97.1273 150.623 97 158.877L97 158.877 97 174Z" fill="#4E95D9" fill-rule="evenodd"/><path d="M90.0001 174 90.0001 158.877 81.4359 158.877C81.5836 154.219 85.3733 150.518 90.0001 150.515L90.0001 144C81.806 143.999 75.1273 150.623 75 158.877L75 158.877 75 174Z" fill="#4E95D9" fill-rule="evenodd"/></g></svg>